<svg width="448" height="116" xmlns="http://www.w3.org/2000/svg" xmlns:xlink="http://www.w3.org/1999/xlink" xml:space="preserve" overflow="hidden"><defs><clipPath id="clip0"><rect x="60" y="36" width="448" height="116"/></clipPath><clipPath id="clip1"><rect x="60" y="36" width="448" height="116"/></clipPath><clipPath id="clip2"><rect x="61" y="37" width="446" height="115"/></clipPath><clipPath id="clip3"><rect x="61" y="37" width="446" height="115"/></clipPath><clipPath id="clip4"><rect x="61" y="37" width="446" height="115"/></clipPath><clipPath id="clip5"><rect x="61" y="37" width="446" height="115"/></clipPath></defs><g clip-path="url(#clip0)" transform="translate(-60 -36)"><g clip-path="url(#clip1)"><g clip-path="url(#clip2)"><g clip-path="url(#clip3)"><g clip-path="url(#clip4)"><g><path d="M60.9255 105.702 66.3085 105.702 66.3085 81.9681 60.9255 81.9681 60.9255 74.6277 76.0957 74.6277 76.0957 81.234C78.7872 76.3404 83.6809 73.6489 89.0638 73.6489 99.3404 73.6489 102.766 79.0319 102.766 88.8192L102.766 105.947 108.149 105.947 108.149 113.287 86.8617 113.287 86.8617 105.947 91.7553 105.947 91.7553 89.3085C91.7553 85.3936 89.5532 81.4787 84.9043 81.4787 80.2553 81.4787 76.5851 86.8617 76.5851 91.7553L76.5851 105.702 81.4787 105.702 81.4787 113.043 60.1915 113.043 60.1915 105.702Z" fill="#000000" fill-rule="nonzero" fill-opacity="1" transform="matrix(1.01266 0 0 1 61 37.367)"/><path d="M115.734 105.213 122.585 105.213 122.585 67.0426 115.734 67.0426 115.734 59.2128 145.096 59.2128C150.479 59.2128 172.5 59.9468 172.5 85.883 172.5 111.819 161.245 112.798 143.872 112.798L115.979 112.798 115.979 104.968ZM133.84 105.213 142.894 105.213C154.638 105.213 160.511 97.8723 160.511 86.1277 160.511 74.383 154.883 67.0426 142.894 67.0426L133.84 67.0426 133.84 105.213Z" fill="#000000" fill-rule="nonzero" fill-opacity="1" transform="matrix(1.01266 0 0 1 61 37.367)"/><path d="M187.426 97.1383C187.426 103.255 190.851 106.926 196.968 106.926 203.085 106.926 203.574 105.457 204.553 101.298L214.83 101.298C213.117 110.596 205.532 114.266 196.723 114.266 183.266 114.266 176.17 106.191 176.17 93.4681 176.17 80.7447 184.489 73.6489 196.479 73.6489 208.468 73.6489 213.117 79.0319 214.83 88.3298 215.319 91.266 215.319 94.2021 215.319 97.1383L187.426 97.1383ZM204.553 90.0426C204.553 84.6596 201.862 80.9894 195.989 80.9894 190.117 80.9894 187.426 84.9043 187.426 90.0426L204.309 90.0426Z" fill="#000000" fill-rule="nonzero" fill-opacity="1" transform="matrix(1.01266 0 0 1 61 37.367)"/><path d="M220.213 105.702 225.596 105.702 225.596 81.9681 220.213 81.9681 220.213 74.6277 235.383 74.6277 235.383 81.234C238.074 76.3404 242.968 73.6489 248.351 73.6489 253.734 73.6489 258.383 75.3617 261.074 80.7447 263.766 75.8511 268.17 73.6489 273.553 73.6489 282.117 73.6489 287.745 77.0745 287.989 86.1277L287.989 105.947 293.372 105.947 293.372 113.287 272.085 113.287 272.085 105.947 276.979 105.947 276.979 89.3085C276.979 85.1489 275.266 81.4787 270.372 81.4787 265.479 81.4787 261.809 86.1277 261.809 91.5106L261.809 105.947 266.702 105.947 266.702 113.287 245.904 113.287 245.904 105.947 250.798 105.947 250.798 89.3085C250.798 85.3936 248.596 81.4787 243.947 81.4787 239.298 81.4787 235.628 86.8617 235.628 91.7553L235.628 105.702 240.521 105.702 240.521 113.043 219.234 113.043 219.234 105.702Z" fill="#000000" fill-rule="nonzero" fill-opacity="1" transform="matrix(1.01266 0 0 1 61 37.367)"/><path d="M322.979 107.415 322.979 107.415C319.553 112.553 316.128 114.266 310.255 114.266 304.383 114.266 296.798 110.106 296.798 102.032 296.798 89.3085 309.521 89.0638 319.064 89.0638L322.979 89.0638 322.979 86.1277C322.979 81.7234 319.553 80.2553 315.638 80.2553 311.723 80.2553 308.787 81.9681 308.298 86.617L298.021 86.617C298.755 75.6064 307.809 73.8936 316.862 73.8936 325.915 73.8936 333.255 79.0319 333.255 90.7766L333.255 106.191 338.149 106.191 338.149 113.532 323.223 113.532 323.223 107.904ZM317.596 95.4255C311.968 95.4255 307.074 96.4043 307.074 101.543 307.074 106.681 309.521 106.681 312.947 106.681 319.553 106.681 323.223 102.032 322.979 95.4255L317.84 95.4255Z" fill="#000000" fill-rule="nonzero" fill-opacity="1" transform="matrix(1.01266 0 0 1 61 37.367)"/><path d="M344.021 105.702 349.404 105.702 349.404 81.9681 344.021 81.9681 344.021 74.6277 359.191 74.6277 359.191 81.234C361.883 76.3404 366.777 73.6489 372.16 73.6489 382.436 73.6489 385.862 79.0319 385.862 88.8192L385.862 105.947 391.245 105.947 391.245 113.287 369.957 113.287 369.957 105.947 374.851 105.947 374.851 89.3085C374.851 85.3936 372.649 81.4787 368 81.4787 363.351 81.4787 359.681 86.8617 359.681 91.7553L359.681 105.702 364.574 105.702 364.574 113.043 343.287 113.043 343.287 105.702Z" fill="#000000" fill-rule="nonzero" fill-opacity="1" transform="matrix(1.01266 0 0 1 61 37.367)"/></g><g clip-path="url(#clip5)"><path d="M435.043 105.702 440.426 105.702 440.426 113.043 425.255 113.043 425.255 106.681C421.83 112.064 418.404 114.266 411.553 114.266 400.298 114.266 394.915 104.723 394.915 94.4468 394.915 84.1702 402.255 73.4043 412.287 73.4043 422.319 73.4043 422.319 76.5851 424.277 80.2553L424.277 65.5745 418.894 65.5745 418.894 58.234 435.043 58.234 435.043 105.702ZM424.766 93.2234C424.766 86.8617 422.074 81.234 415.223 81.234 408.372 81.234 406.17 87.5957 406.17 93.7128 406.17 99.8298 409.596 106.191 414.245 106.191 422.564 106.191 424.766 101.298 424.766 92.9787" fill="#000000" fill-rule="nonzero" fill-opacity="1" transform="matrix(1.01266 0 0 1 61 37.367)"/><path d="M28.6277 58.4787C19.8192 58.4787 11.9894 62.6383 6.85106 69 7.09575 69 7.58511 69 7.82979 69.4894L18.1064 74.6277C20.7979 72.1809 24.4681 70.7128 28.383 70.7128 37.1915 70.7128 44.2872 77.8085 44.2872 86.617 44.2872 95.4255 37.1915 102.521 28.383 102.521 19.5745 102.521 20.7979 101.053 18.1064 98.6064L7.82979 103.745C7.58511 103.745 7.09575 103.989 6.85106 104.234 11.9894 110.596 19.8192 114.755 28.6277 114.755 44.0426 114.755 56.5213 102.277 56.5213 86.8617 56.5213 71.4468 44.0426 58.9681 28.6277 58.9681" fill="#CE0E2D" fill-rule="nonzero" fill-opacity="1" transform="matrix(1.01266 0 0 1 61 37.367)"/></g><g><path d="M5.38298 75.117C2.44681 73.6489 0 75.117 0 78.2979L0 94.4468C0 97.6277 2.44681 99.0957 5.38298 97.6277L23.4894 88.8192C26.4255 87.3511 26.4255 85.1489 23.4894 83.6809L5.38298 74.8723Z" fill="#CE0E2D" fill-rule="nonzero" fill-opacity="1" transform="matrix(1.01266 0 0 1 61 37.367)"/><path d="M128.457 44.5319 11.9894 44.5319C5.62766 44.5319 0.244681 39.3936 0.244681 32.7872L0.244681 11.7447C0.244681 5.38298 5.62766 0 11.9894 0L128.213 0C134.819 0 139.957 5.38298 139.957 11.7447L139.957 32.7872C139.957 39.1489 134.574 44.5319 128.213 44.5319" fill="#000000" fill-rule="nonzero" fill-opacity="1" transform="matrix(1.01266 0 0 1 61 37.367)"/><path d="M17.1277 22.266C17.1277 14.9255 21.7766 9.54255 29.8511 9.54255 37.9255 9.54255 42.5745 14.9255 42.5745 22.266 42.5745 29.6064 37.9255 34.9894 29.8511 34.9894 21.7766 34.9894 17.1277 29.6064 17.1277 22.266M37.1915 22.266C37.1915 17.1277 34.9894 13.2128 29.8511 13.2128 24.7128 13.2128 22.5106 17.1277 22.5106 22.266 22.5106 27.4043 24.7128 31.3192 29.8511 31.3192 34.9894 31.3192 37.1915 27.4043 37.1915 22.266" fill="#FFFFFF" fill-rule="nonzero" fill-opacity="1" transform="matrix(1.01266 0 0 1 61 37.367)"/><path d="M45.0213 30.8298 48.4468 30.8298 48.4468 13.7021 45.0213 13.7021 45.0213 10.2766 57.9894 10.2766C61.9043 10.2766 66.5532 11.0106 66.5532 17.617 66.5532 24.2234 62.883 25.4468 57.9894 25.4468L53.3404 25.4468 53.3404 31.0745 57.2553 31.0745 57.2553 34.5 45.0213 34.5 45.0213 31.0745ZM53.3404 21.7766 56.0319 21.7766C58.9681 21.7766 61.4149 21.2872 61.4149 17.8617 61.4149 14.4362 58.4787 13.7021 55.7872 13.7021L53.3404 13.7021 53.3404 21.7766Z" fill="#FFFFFF" fill-rule="nonzero" fill-opacity="1" transform="matrix(1.01266 0 0 1 61 37.367)"/><path d="M69.4894 30.8298 72.6702 30.8298 72.6702 13.7021 69.4894 13.7021 69.4894 10.2766 91.5106 10.2766 91.5106 17.3723 87.3511 17.3723 87.3511 13.7021 77.8085 13.7021 77.8085 20.3085 81.4787 20.3085 81.4787 17.1277 85.1489 17.1277 85.1489 26.9149 81.4787 26.9149 81.4787 23.734 77.8085 23.734 77.8085 30.8298 87.3511 30.8298 87.3511 26.4255 91.5106 26.4255 91.5106 34.5 69.4894 34.5 69.4894 30.8298Z" fill="#FFFFFF" fill-rule="nonzero" fill-opacity="1" transform="matrix(1.01266 0 0 1 61 37.367)"/><path d="M95.9149 30.8298 99.0957 30.8298 99.0957 13.7021 95.9149 13.7021 95.9149 10.2766 106.191 10.2766 115.489 28.1383 115.734 28.1383 115.734 13.7021 112.553 13.7021 112.553 10.2766 123.319 10.2766 123.319 13.7021 120.383 13.7021 120.383 34.5 113.532 34.5 103.745 15.6596 103.745 30.8298 106.681 30.8298 106.681 34.5 95.9149 34.5 95.9149 30.8298Z" fill="#FFFFFF" fill-rule="nonzero" fill-opacity="1" transform="matrix(1.01266 0 0 1 61 37.367)"/></g></g></g></g></g></g></svg>